<?xml version="1.0" encoding="UTF-8" standalone="no"?>
<!DOCTYPE svg PUBLIC "-//W3C//DTD SVG 1.1//EN" "http://www.w3.org/Graphics/SVG/1.1/DTD/svg11.dtd">
<svg width="1" height="1" viewBox="0 0 1 1" fill="none" xmlns="http://www.w3.org/2000/svg">
<path d="M0.25 0.09375H0.21875V0.125H0.25V0.09375Z" fill="#17315E"/>
<path d="M0.3125 0.09375H0.28125V0.125H0.3125V0.09375Z" fill="#17315E"/>
<path d="M0.375 0.09375H0.34375V0.125H0.375V0.09375Z" fill="#17315E"/>
<path d="M0.046875 0.96875H0.53125C0.539828 0.96875 0.546875 0.961703 0.546875 0.953125C0.546875 0.948984 0.545219 0.945 0.542297 0.942078L0.0579219 0.457703C0.055 0.454781 0.0510156 0.453125 0.046875 0.453125C0.0382969 0.453125 0.03125 0.460172 0.03125 0.46875V0.953125C0.03125 0.961703 0.0382969 0.96875 0.046875 0.96875ZM0.0625 0.506469L0.493531 0.9375H0.0625V0.506469Z" fill="#17315E"/>
<path d="M0.307922 0.848328L0.151672 0.692078C0.14875 0.689156 0.144766 0.6875 0.140625 0.6875C0.132047 0.6875 0.125 0.694547 0.125 0.703125V0.859375C0.125 0.867953 0.132047 0.875 0.140625 0.875H0.296875C0.305453 0.875 0.3125 0.867953 0.3125 0.859375C0.3125 0.855234 0.310844 0.85125 0.307922 0.848328ZM0.15625 0.84375V0.740844L0.259156 0.84375H0.15625Z" fill="#17315E"/>
<path d="M0.951219 0.164625C0.962437 0.153406 0.968734 0.138187 0.968734 0.122328C0.968734 0.0895156 0.941734 0.0625156 0.908922 0.0625156C0.893063 0.0625156 0.877844 0.0688125 0.866625 0.0800313L0.843188 0.103469C0.840188 0.0630469 0.806156 0.0313594 0.765625 0.03125H0.234375C0.191531 0.0312969 0.156297 0.0665312 0.15625 0.109375V0.515625H0.1875V0.109375C0.1875 0.0836562 0.208656 0.0625 0.234375 0.0625H0.765625C0.791344 0.0625 0.8125 0.0836562 0.8125 0.109375V0.134156L0.665406 0.28125H0.550563C0.524875 0.215484 0.461141 0.171953 0.390531 0.171953C0.296297 0.171953 0.218734 0.2495 0.218734 0.34375C0.218734 0.432141 0.286969 0.506844 0.375 0.514844V0.578125C0.375 0.586703 0.382047 0.59375 0.390625 0.59375H0.734375C0.742953 0.59375 0.75 0.586703 0.75 0.578125V0.365844L0.8125 0.303344V0.625H0.453125C0.444547 0.625 0.4375 0.632047 0.4375 0.640625V0.765625C0.4375 0.774203 0.444547 0.78125 0.453125 0.78125H0.8125V0.796875C0.8125 0.822594 0.791344 0.84375 0.765625 0.84375H0.515625V0.875H0.765625C0.808469 0.874953 0.843703 0.839719 0.84375 0.796875V0.78125H0.953125C0.961703 0.78125 0.96875 0.774203 0.96875 0.765625V0.640625C0.96875 0.632047 0.961703 0.625 0.953125 0.625H0.84375V0.272094L0.951219 0.164625ZM0.888719 0.102125C0.894109 0.0965 0.901563 0.0933125 0.909359 0.0933125C0.925031 0.0933125 0.937937 0.106219 0.937937 0.121891C0.937937 0.129688 0.93475 0.137141 0.929125 0.142531L0.921875 0.149781L0.881469 0.109375L0.888719 0.102125ZM0.53125 0.34375C0.531156 0.414969 0.477031 0.475469 0.40625 0.483453V0.3125H0.527625C0.53 0.32275 0.531219 0.333234 0.53125 0.34375ZM0.375 0.296875V0.483453C0.304078 0.475641 0.249766 0.415031 0.249766 0.343672C0.249766 0.266531 0.31325 0.203047 0.390391 0.203047C0.443766 0.203047 0.492719 0.233422 0.516406 0.28125H0.390625C0.382047 0.28125 0.375 0.288297 0.375 0.296875ZM0.71875 0.5625H0.40625V0.514844C0.494203 0.507141 0.5625 0.432609 0.5625 0.344328C0.5625 0.333641 0.5615 0.322984 0.559516 0.3125H0.634156L0.598328 0.348328C0.596141 0.3505 0.594656 0.353281 0.594063 0.356313L0.578438 0.434438C0.578234 0.435453 0.578141 0.436469 0.578141 0.4375C0.578141 0.446062 0.585188 0.453125 0.59375 0.453125C0.594797 0.453141 0.595844 0.453031 0.596875 0.452812L0.675 0.437187C0.678031 0.436594 0.680812 0.435109 0.682984 0.432922L0.71875 0.397094V0.5625ZM0.618969 0.391062L0.640188 0.412281L0.613625 0.417578L0.618969 0.391062ZM0.875 0.65625V0.6875H0.90625V0.65625H0.9375V0.75H0.46875V0.65625H0.5V0.6875H0.53125V0.65625H0.5625V0.6875H0.59375V0.65625H0.625V0.6875H0.65625V0.65625H0.6875V0.6875H0.71875V0.65625H0.75V0.6875H0.78125V0.65625H0.8125V0.6875H0.84375V0.65625H0.875ZM0.671875 0.399781L0.631469 0.359375L0.859375 0.131469L0.899781 0.171875L0.671875 0.399781Z" fill="#17315E"/>
</svg>
