<?xml version="1.0" encoding="UTF-8" standalone="no"?>
<!DOCTYPE svg PUBLIC "-//W3C//DTD SVG 1.1//EN" "http://www.w3.org/Graphics/SVG/1.1/DTD/svg11.dtd">
<svg width="1" height="1" viewBox="0 0 1 1" fill="none" xmlns="http://www.w3.org/2000/svg">
<path d="M0.620797 0.937843V0.943877H0.384085V0.937843C0.384085 0.888057 0.425044 0.847097 0.47483 0.847097H0.530052C0.579838 0.847097 0.620797 0.888057 0.620797 0.937843ZM0.242472 0.847164H0.187267C0.137481 0.847164 0.0965216 0.888123 0.0965216 0.937909V0.943877H0.333235V0.937843C0.333185 0.88809 0.292225 0.847164 0.242472 0.847164ZM0.29934 0.726214C0.299323 0.679886 0.261207 0.641769 0.214878 0.641769C0.16855 0.641769 0.130416 0.679902 0.130416 0.726231C0.130416 0.772559 0.168533 0.810676 0.214861 0.810693H0.214878C0.261207 0.810693 0.29934 0.772559 0.29934 0.726231V0.726214ZM0.58692 0.726214C0.586903 0.679886 0.548786 0.641769 0.502458 0.641769C0.456129 0.641769 0.417996 0.679902 0.417996 0.726231C0.417996 0.772559 0.456112 0.810676 0.502441 0.810693C0.54877 0.810693 0.586903 0.772559 0.586903 0.726231V0.726214H0.58692ZM0.951763 0.0678396V0.565037C0.951763 0.578717 0.94051 0.589971 0.926829 0.589971H0.734666L0.735497 0.540102L0.737492 0.471116C0.73819 0.446481 0.720536 0.424837 0.696266 0.420582L0.338039 0.356583C0.337074 0.356417 0.336094 0.356317 0.335113 0.356317C0.326004 0.356317 0.31849 0.363831 0.31849 0.37294C0.31849 0.373538 0.318523 0.37412 0.31859 0.374702C0.319903 0.400667 0.337989 0.422942 0.36314 0.429558C0.391897 0.436872 0.520394 0.488238 0.520394 0.488238V0.589971H0.0780534C0.0643725 0.589971 0.0531187 0.578717 0.0531187 0.565037V0.0678396C0.0531187 0.0541588 0.0643725 0.042905 0.0780534 0.042905H0.926829C0.94051 0.042905 0.951763 0.0541588 0.951763 0.0678396ZM0.714718 0.287863C0.714718 0.242814 0.677649 0.205745 0.6326 0.205745C0.587551 0.205745 0.550482 0.242814 0.550482 0.287863C0.550482 0.332912 0.587551 0.369981 0.6326 0.369981C0.677632 0.369948 0.714685 0.332895 0.714718 0.287863ZM0.817598 0.847164H0.76241C0.712623 0.847164 0.671664 0.888123 0.671648 0.937909V0.943877H0.90836V0.937843C0.908327 0.888073 0.867368 0.847147 0.817598 0.847164ZM0.874466 0.726214C0.874449 0.679886 0.836333 0.641769 0.790004 0.641769C0.743675 0.641769 0.705542 0.679902 0.705542 0.726231C0.705542 0.772559 0.743675 0.810693 0.790004 0.810693H0.790021C0.836349 0.810676 0.874466 0.772559 0.874466 0.726231V0.726214Z" stroke="#17315E" stroke-width="0.0400617" stroke-miterlimit="2" stroke-linejoin="round"/>
</svg>
