<?xml version="1.0" encoding="UTF-8" standalone="no"?>
<!DOCTYPE svg PUBLIC "-//W3C//DTD SVG 1.1//EN" "http://www.w3.org/Graphics/SVG/1.1/DTD/svg11.dtd">
<svg width="1" height="1" viewBox="0 0 1 1" fill="none" xmlns="http://www.w3.org/2000/svg">
<path d="M0.671473 0.71533C0.671473 0.689487 0.650441 0.668455 0.624598 0.668455C0.598754 0.668455 0.577723 0.689487 0.577723 0.71533C0.577723 0.735674 0.590832 0.752862 0.608973 0.75933V0.796346C0.590832 0.802815 0.577723 0.820002 0.577723 0.840346C0.577723 0.86619 0.598754 0.887221 0.624598 0.887221C0.650441 0.887221 0.671473 0.86619 0.671473 0.840346C0.671473 0.820002 0.658363 0.802815 0.640223 0.796346V0.75933C0.658363 0.752862 0.671473 0.735674 0.671473 0.71533ZM0.624598 0.699705C0.633207 0.699705 0.640223 0.706721 0.640223 0.71533C0.640223 0.72394 0.633207 0.730955 0.624598 0.730955C0.615988 0.730955 0.608973 0.72394 0.608973 0.71533C0.608973 0.706721 0.615988 0.699705 0.624598 0.699705ZM0.624598 0.855955C0.615988 0.855955 0.608973 0.84894 0.608973 0.84033C0.608973 0.831721 0.615988 0.824705 0.624598 0.824705C0.633207 0.824705 0.640223 0.831721 0.640223 0.84033C0.640223 0.84894 0.633207 0.855955 0.624598 0.855955Z" fill="#17315E"/>
<path d="M0.983973 0.271362L0.881066 0.168455H0.856098C0.849629 0.150315 0.832441 0.137205 0.812098 0.137205C0.786254 0.137205 0.765223 0.158237 0.765223 0.18408C0.765223 0.204424 0.778332 0.221612 0.796473 0.22808V0.24658H0.709191L0.666769 0.204158C0.669707 0.198049 0.671473 0.191299 0.671473 0.18408C0.671473 0.158237 0.650441 0.137205 0.624598 0.137205C0.598754 0.137205 0.577723 0.158237 0.577723 0.18408C0.577723 0.209924 0.598754 0.230955 0.624598 0.230955C0.631816 0.230955 0.638566 0.22919 0.644676 0.226252L0.696254 0.27783H0.796473V0.302612L0.743129 0.355955H0.731098C0.724629 0.337815 0.707441 0.324705 0.687098 0.324705C0.661254 0.324705 0.640223 0.345737 0.640223 0.37158C0.640223 0.378799 0.641988 0.385549 0.644926 0.391658L0.62816 0.408424C0.62016 0.390346 0.608379 0.37394 0.593332 0.360471C0.563551 0.33383 0.523426 0.321033 0.483488 0.325596C0.433566 0.331174 0.390988 0.363955 0.371113 0.408471L0.354301 0.391658C0.357207 0.385549 0.358973 0.378799 0.358973 0.37158C0.358973 0.345737 0.337941 0.324705 0.312098 0.324705C0.291754 0.324705 0.274566 0.337815 0.268098 0.355955H0.256066L0.202723 0.302612V0.22808C0.220863 0.221612 0.233973 0.204424 0.233973 0.18408C0.233973 0.172799 0.229816 0.162596 0.22316 0.154487L0.302941 0.0747054H0.415004L0.483973 0.143674V0.208862L0.461879 0.230955H0.434223C0.427754 0.212815 0.410566 0.199705 0.390223 0.199705C0.364379 0.199705 0.343348 0.220737 0.343348 0.24658C0.343348 0.272424 0.364379 0.293455 0.390223 0.293455C0.410566 0.293455 0.427754 0.280346 0.434223 0.262205H0.474816L0.515223 0.221799V0.143674L0.584191 0.0747054H0.705598C0.712066 0.092846 0.729254 0.105955 0.749598 0.105955C0.775441 0.105955 0.796473 0.0849241 0.796473 0.0590804C0.796473 0.0332366 0.775441 0.0122054 0.749598 0.0122054C0.729254 0.0122054 0.712066 0.0253147 0.705598 0.0434554H0.571254L0.499598 0.115112L0.427941 0.0434554H0.290004L0.19541 0.138049C0.192707 0.137565 0.189941 0.137205 0.187098 0.137205C0.166754 0.137205 0.149566 0.150315 0.143098 0.168455H0.118129L0.0152225 0.271362V0.456174L0.0511757 0.492127C0.0482382 0.498237 0.0464725 0.504987 0.0464725 0.512205C0.0464725 0.519424 0.0482382 0.526174 0.0511757 0.532283L0.0152225 0.568237V0.706174L0.102504 0.793455H0.143098C0.147816 0.80669 0.158238 0.817112 0.171473 0.82183V0.878049L0.274379 0.980955H0.412316L0.499598 0.893674L0.586879 0.980955H0.724816L0.827723 0.878049V0.82183C0.840957 0.817112 0.851379 0.80669 0.856098 0.793455H0.896691L0.983973 0.706174V0.568237L0.948019 0.532283C0.950957 0.526174 0.952723 0.519424 0.952723 0.512205C0.952723 0.504987 0.950957 0.498237 0.948019 0.492127L0.983973 0.456174V0.271362ZM0.608973 0.18408C0.608973 0.175471 0.615988 0.168455 0.624598 0.168455C0.633207 0.168455 0.640223 0.175471 0.640223 0.18408C0.640223 0.19269 0.633207 0.199705 0.624598 0.199705C0.615988 0.199705 0.608973 0.19269 0.608973 0.18408ZM0.390223 0.262205C0.381613 0.262205 0.374598 0.25519 0.374598 0.24658C0.374598 0.237971 0.381613 0.230955 0.390223 0.230955C0.398832 0.230955 0.405848 0.237971 0.405848 0.24658C0.405848 0.25519 0.398832 0.262205 0.390223 0.262205ZM0.749598 0.0434554C0.758207 0.0434554 0.765223 0.050471 0.765223 0.0590804C0.765223 0.0676897 0.758207 0.0747054 0.749598 0.0747054C0.740988 0.0747054 0.733973 0.0676897 0.733973 0.0590804C0.733973 0.050471 0.740988 0.0434554 0.749598 0.0434554ZM0.812098 0.168455C0.820707 0.168455 0.827723 0.175471 0.827723 0.18408C0.827723 0.19269 0.820707 0.199705 0.812098 0.199705C0.803488 0.199705 0.796473 0.19269 0.796473 0.18408C0.796473 0.175471 0.803488 0.168455 0.812098 0.168455ZM0.687098 0.355955C0.695707 0.355955 0.702723 0.362971 0.702723 0.37158C0.702723 0.38019 0.695707 0.387205 0.687098 0.387205C0.678488 0.387205 0.671473 0.38019 0.671473 0.37158C0.671473 0.362971 0.678488 0.355955 0.687098 0.355955ZM0.391082 0.451471C0.397129 0.402065 0.437441 0.362205 0.486941 0.356674C0.491238 0.35619 0.495504 0.355955 0.499738 0.355955C0.526723 0.355955 0.552176 0.365612 0.572488 0.383783C0.595676 0.404518 0.608973 0.434237 0.608973 0.46533C0.608973 0.495018 0.597019 0.522908 0.575941 0.543455H0.515223V0.50933C0.533363 0.502862 0.546473 0.485674 0.546473 0.46533C0.546473 0.439487 0.525441 0.418455 0.499598 0.418455C0.473754 0.418455 0.452723 0.439487 0.452723 0.46533C0.452723 0.485674 0.465832 0.502862 0.483973 0.50933V0.543455H0.423379C0.39891 0.519627 0.386832 0.486033 0.391082 0.451471ZM0.499598 0.762205C0.490988 0.762205 0.483973 0.75519 0.483973 0.74658C0.483973 0.737971 0.490988 0.730955 0.499598 0.730955C0.508207 0.730955 0.515223 0.737971 0.515223 0.74658C0.515223 0.75519 0.508207 0.762205 0.499598 0.762205ZM0.452723 0.637205C0.444113 0.637205 0.437098 0.63019 0.437098 0.62158V0.574705H0.562098V0.62158C0.562098 0.63019 0.555082 0.637205 0.546473 0.637205H0.452723ZM0.483973 0.46533C0.483973 0.456721 0.490988 0.449705 0.499598 0.449705C0.508207 0.449705 0.515223 0.456721 0.515223 0.46533C0.515223 0.47394 0.508207 0.480955 0.499598 0.480955C0.490988 0.480955 0.483973 0.47394 0.483973 0.46533ZM0.312098 0.355955C0.320707 0.355955 0.327723 0.362971 0.327723 0.37158C0.327723 0.38019 0.320707 0.387205 0.312098 0.387205C0.303488 0.387205 0.296473 0.38019 0.296473 0.37158C0.296473 0.362971 0.303488 0.355955 0.312098 0.355955ZM0.187098 0.168455C0.195707 0.168455 0.202723 0.175471 0.202723 0.18408C0.202723 0.19269 0.195707 0.199705 0.187098 0.199705C0.178488 0.199705 0.171473 0.19269 0.171473 0.18408C0.171473 0.175471 0.178488 0.168455 0.187098 0.168455ZM0.0933475 0.52783C0.0847382 0.52783 0.0777225 0.520815 0.0777225 0.512205C0.0777225 0.503596 0.0847382 0.49658 0.0933475 0.49658C0.101957 0.49658 0.108973 0.503596 0.108973 0.512205C0.108973 0.520815 0.101957 0.52783 0.0933475 0.52783ZM0.171473 0.77783C0.171473 0.769221 0.178488 0.762205 0.187098 0.762205C0.195707 0.762205 0.202723 0.769221 0.202723 0.77783C0.202723 0.78644 0.195707 0.793455 0.187098 0.793455C0.178488 0.793455 0.171473 0.78644 0.171473 0.77783ZM0.399379 0.949705H0.287316L0.202723 0.865112V0.82183C0.220863 0.815362 0.233973 0.798174 0.233973 0.77783C0.233973 0.751987 0.212941 0.730955 0.187098 0.730955C0.166754 0.730955 0.149566 0.744065 0.143098 0.762205H0.115441L0.0464725 0.693237V0.581174L0.0732694 0.554377C0.0793788 0.557315 0.0861288 0.55908 0.0933475 0.55908C0.100566 0.55908 0.107316 0.557315 0.113426 0.554377L0.165004 0.605955H0.205598C0.212066 0.624096 0.229254 0.637205 0.249598 0.637205C0.275441 0.637205 0.296473 0.616174 0.296473 0.59033C0.296473 0.564487 0.275441 0.543455 0.249598 0.543455C0.229254 0.543455 0.212066 0.556565 0.205598 0.574705H0.177941L0.135519 0.532283C0.138457 0.526174 0.140223 0.519424 0.140223 0.512205C0.140223 0.486362 0.119191 0.46533 0.0933475 0.46533C0.0861288 0.46533 0.0793788 0.467096 0.0732694 0.470033L0.0464725 0.443237V0.284299L0.131066 0.199705H0.143098C0.147816 0.21294 0.158238 0.223362 0.171473 0.22808V0.315549L0.243129 0.387205H0.268098C0.274566 0.405346 0.291754 0.418455 0.312098 0.418455C0.319316 0.418455 0.326066 0.41669 0.332176 0.413752L0.36091 0.442487C0.360629 0.444205 0.360254 0.445908 0.360051 0.447658C0.354363 0.49408 0.37141 0.539268 0.405848 0.570049V0.62158C0.405848 0.647424 0.426879 0.668455 0.452723 0.668455H0.483973V0.70258C0.465832 0.709049 0.452723 0.726237 0.452723 0.74658C0.452723 0.766924 0.465832 0.784112 0.483973 0.79058V0.865112L0.399379 0.949705ZM0.233973 0.59033C0.233973 0.581721 0.240988 0.574705 0.249598 0.574705C0.258207 0.574705 0.265223 0.581721 0.265223 0.59033C0.265223 0.59894 0.258207 0.605955 0.249598 0.605955C0.240988 0.605955 0.233973 0.59894 0.233973 0.59033ZM0.812098 0.793455C0.803488 0.793455 0.796473 0.78644 0.796473 0.77783C0.796473 0.769221 0.803488 0.762205 0.812098 0.762205C0.820707 0.762205 0.827723 0.769221 0.827723 0.77783C0.827723 0.78644 0.820707 0.793455 0.812098 0.793455ZM0.890223 0.512205C0.890223 0.503596 0.897238 0.49658 0.905848 0.49658C0.914457 0.49658 0.921473 0.503596 0.921473 0.512205C0.921473 0.520815 0.914457 0.52783 0.905848 0.52783C0.897238 0.52783 0.890223 0.520815 0.890223 0.512205ZM0.952723 0.443237L0.925926 0.470033C0.919816 0.467096 0.913066 0.46533 0.905848 0.46533C0.880004 0.46533 0.858973 0.486362 0.858973 0.512205C0.858973 0.519424 0.860738 0.526174 0.863676 0.532283L0.821254 0.574705H0.793598C0.787129 0.556565 0.769941 0.543455 0.749598 0.543455C0.723754 0.543455 0.702723 0.564487 0.702723 0.59033C0.702723 0.616174 0.723754 0.637205 0.749598 0.637205C0.769941 0.637205 0.787129 0.624096 0.793598 0.605955H0.834191L0.885769 0.554377C0.891879 0.557315 0.898629 0.55908 0.905848 0.55908C0.913066 0.55908 0.919816 0.557315 0.925926 0.554377L0.952723 0.581174V0.693237L0.883754 0.762205H0.856098C0.849629 0.744065 0.832441 0.730955 0.812098 0.730955C0.786254 0.730955 0.765223 0.751987 0.765223 0.77783C0.765223 0.798174 0.778332 0.815362 0.796473 0.82183V0.865112L0.711879 0.949705H0.599816L0.515223 0.865112V0.79058C0.533363 0.784112 0.546473 0.766924 0.546473 0.74658C0.546473 0.726237 0.533363 0.709049 0.515223 0.70258V0.668455H0.546473C0.572316 0.668455 0.593348 0.647424 0.593348 0.62158V0.570065C0.623238 0.543346 0.640223 0.505596 0.640223 0.46533C0.640223 0.457658 0.63941 0.45008 0.638176 0.442596L0.667019 0.413752C0.673129 0.41669 0.679879 0.418455 0.687098 0.418455C0.707441 0.418455 0.724629 0.405346 0.731098 0.387205H0.756066L0.827723 0.315549V0.22808C0.840957 0.223362 0.851379 0.21294 0.856098 0.199705H0.868129L0.952723 0.284299V0.443237ZM0.765223 0.59033C0.765223 0.59894 0.758207 0.605955 0.749598 0.605955C0.740988 0.605955 0.733973 0.59894 0.733973 0.59033C0.733973 0.581721 0.740988 0.574705 0.749598 0.574705C0.758207 0.574705 0.765223 0.581721 0.765223 0.59033Z" fill="#17315E"/>
<path d="M0.374598 0.668455C0.348754 0.668455 0.327723 0.689487 0.327723 0.71533C0.327723 0.735674 0.340832 0.752862 0.358973 0.75933V0.771362L0.332176 0.798158C0.326066 0.795221 0.319316 0.793455 0.312098 0.793455C0.286254 0.793455 0.265223 0.814487 0.265223 0.84033C0.265223 0.866174 0.286254 0.887205 0.312098 0.887205C0.337941 0.887205 0.358973 0.866174 0.358973 0.84033C0.358973 0.833112 0.357207 0.826362 0.354269 0.820252L0.390223 0.784299V0.75933C0.408363 0.752862 0.421473 0.735674 0.421473 0.71533C0.421473 0.689487 0.400441 0.668455 0.374598 0.668455ZM0.312098 0.855955C0.303488 0.855955 0.296473 0.84894 0.296473 0.84033C0.296473 0.831721 0.303488 0.824705 0.312098 0.824705C0.320707 0.824705 0.327723 0.831721 0.327723 0.84033C0.327723 0.84894 0.320707 0.855955 0.312098 0.855955ZM0.374598 0.730955C0.365988 0.730955 0.358973 0.72394 0.358973 0.71533C0.358973 0.706721 0.365988 0.699705 0.374598 0.699705C0.383207 0.699705 0.390223 0.706721 0.390223 0.71533C0.390223 0.72394 0.383207 0.730955 0.374598 0.730955Z" fill="#17315E"/>
</svg>

