<?xml version="1.0" encoding="UTF-8" standalone="no"?>
<!DOCTYPE svg PUBLIC "-//W3C//DTD SVG 1.1//EN" "http://www.w3.org/Graphics/SVG/1.1/DTD/svg11.dtd">
<svg width="1" height="1" viewBox="0 0 1 1" fill="none" xmlns="http://www.w3.org/2000/svg">
<path d="M0.952418 0.585227H0.840418V0.583227C0.850418 0.570227 0.855418 0.555227 0.855418 0.538227C0.855418 0.497227 0.822418 0.463227 0.780418 0.463227C0.739418 0.463227 0.705418 0.496227 0.705418 0.538227C0.705418 0.554227 0.710418 0.570227 0.720418 0.583227L0.608418 0.585227C0.597418 0.585227 0.588418 0.594227 0.588418 0.605227V0.735227C0.588418 0.738227 0.588418 0.741227 0.589418 0.745227C0.592418 0.753227 0.599418 0.758227 0.608418 0.758227H0.637418C0.642418 0.758227 0.647418 0.756227 0.651418 0.752227C0.657418 0.746227 0.666418 0.743227 0.674418 0.743227C0.693418 0.743227 0.709418 0.759227 0.709418 0.778227C0.709418 0.797227 0.693418 0.813227 0.674418 0.813227C0.665418 0.813227 0.657418 0.810227 0.651418 0.804227C0.647418 0.800227 0.642418 0.798227 0.637418 0.798227H0.608418C0.600418 0.798227 0.592418 0.803227 0.589418 0.811227C0.588418 0.814227 0.588418 0.817227 0.588418 0.820227V0.951227C0.588418 0.962227 0.597418 0.971227 0.608418 0.971227H0.952418C0.963418 0.971227 0.972418 0.962227 0.972418 0.951227V0.605227C0.972418 0.594227 0.963418 0.585227 0.952418 0.585227ZM0.933418 0.929227H0.628418V0.837227H0.629418C0.642418 0.847227 0.657418 0.852227 0.674418 0.852227C0.715418 0.852227 0.749418 0.819227 0.749418 0.777227C0.749418 0.736227 0.716418 0.702227 0.674418 0.702227C0.658418 0.702227 0.642418 0.707227 0.629418 0.717227L0.628418 0.625227H0.739418C0.745418 0.626227 0.751418 0.623227 0.755418 0.619227C0.759418 0.615227 0.761418 0.608227 0.761418 0.602227V0.576227C0.761418 0.571227 0.759418 0.566227 0.755418 0.562227C0.749418 0.556227 0.746418 0.547227 0.746418 0.539227C0.746418 0.520227 0.762418 0.504227 0.781418 0.504227C0.800418 0.504227 0.816418 0.520227 0.816418 0.539227C0.816418 0.548227 0.813418 0.556227 0.807418 0.562227C0.803418 0.566227 0.801418 0.571227 0.801418 0.576227V0.604227C0.801418 0.607227 0.802418 0.611227 0.803418 0.614227C0.807418 0.622227 0.815418 0.626227 0.823418 0.625227H0.933418V0.929227Z" fill="#17315E"/>
<path d="M0.731418 0.415227C0.742418 0.415227 0.751418 0.406227 0.751418 0.395227V0.0512271C0.751418 0.0462271 0.749418 0.0412271 0.745418 0.0372271C0.741418 0.0332271 0.736418 0.0312271 0.731418 0.0312271H0.0424175C0.0314175 0.0312271 0.0224175 0.0402271 0.0224175 0.0512271V0.740227C0.0224175 0.751227 0.0314175 0.760227 0.0424175 0.760227H0.387418C0.392418 0.760227 0.397418 0.758227 0.401418 0.754227C0.405418 0.750227 0.407418 0.745227 0.407418 0.740227V0.627227H0.408418C0.421418 0.637227 0.436418 0.642227 0.453418 0.642227C0.494418 0.642227 0.528418 0.609227 0.528418 0.567227C0.528418 0.526227 0.495418 0.492227 0.453418 0.492227C0.437418 0.492227 0.421418 0.497227 0.408418 0.507227L0.407418 0.415227H0.517418C0.522418 0.415227 0.526418 0.414227 0.530418 0.411227C0.536418 0.407227 0.539418 0.399227 0.538418 0.392227V0.366227C0.538418 0.361227 0.536418 0.356227 0.532418 0.352227C0.526418 0.346227 0.523418 0.337227 0.523418 0.329227C0.523418 0.310227 0.539418 0.294227 0.558418 0.294227C0.577418 0.294227 0.593418 0.310227 0.593418 0.329227C0.593418 0.338227 0.590418 0.346227 0.584418 0.352227C0.580418 0.356227 0.578418 0.361227 0.578418 0.366227V0.394227C0.578418 0.398227 0.579418 0.402227 0.581418 0.405227C0.585418 0.412227 0.593418 0.416227 0.600418 0.415227H0.731418ZM0.367418 0.0712271V0.163227H0.365418C0.352418 0.153227 0.337418 0.148227 0.320418 0.148227C0.279418 0.148227 0.245418 0.181227 0.245418 0.223227C0.245418 0.264227 0.278418 0.298227 0.320418 0.298227C0.336418 0.298227 0.352418 0.293227 0.365418 0.283227L0.367418 0.375227H0.254418C0.250418 0.375227 0.246418 0.376227 0.242418 0.379227C0.237418 0.383227 0.234418 0.389227 0.234418 0.395227V0.424227C0.234418 0.429227 0.236418 0.434227 0.240418 0.438227C0.246418 0.444227 0.249418 0.453227 0.249418 0.461227C0.249418 0.480227 0.233418 0.496227 0.214418 0.496227C0.195418 0.496227 0.179418 0.480227 0.179418 0.461227C0.179418 0.452227 0.182418 0.444227 0.188418 0.438227C0.192418 0.434227 0.194418 0.429227 0.194418 0.424227V0.395227C0.194418 0.390227 0.192418 0.386227 0.190418 0.382227C0.186418 0.377227 0.180418 0.374227 0.174418 0.374227H0.0624175V0.0712271H0.367418ZM0.415418 0.547227C0.420418 0.547227 0.425418 0.545227 0.429418 0.541227C0.435418 0.535227 0.444418 0.532227 0.452418 0.532227C0.471418 0.532227 0.487418 0.548227 0.487418 0.567227C0.487418 0.586227 0.471418 0.602227 0.452418 0.602227C0.443418 0.602227 0.435418 0.599227 0.429418 0.593227C0.425418 0.589227 0.420418 0.587227 0.415418 0.587227H0.386418C0.377418 0.587227 0.370418 0.593227 0.367418 0.601227C0.366418 0.604227 0.366418 0.606227 0.366418 0.609227V0.720227H0.0624175V0.415227H0.154418V0.417227C0.144418 0.430227 0.139418 0.445227 0.139418 0.462227C0.139418 0.503227 0.172418 0.537227 0.214418 0.537227C0.255418 0.537227 0.289418 0.504227 0.289418 0.462227C0.289418 0.446227 0.284418 0.430227 0.274418 0.417227L0.366418 0.416227V0.525227C0.366418 0.528227 0.366418 0.531227 0.367418 0.535227C0.370418 0.543227 0.377418 0.548227 0.386418 0.548227H0.415418V0.547227ZM0.559418 0.254227C0.518418 0.254227 0.484418 0.287227 0.484418 0.329227C0.484418 0.345227 0.489418 0.361227 0.499418 0.374227L0.407418 0.375227V0.263227C0.407418 0.255227 0.403418 0.249227 0.396418 0.245227C0.393418 0.243227 0.389418 0.243227 0.386418 0.243227H0.357418C0.352418 0.243227 0.347418 0.245227 0.343418 0.249227C0.337418 0.255227 0.328418 0.258227 0.320418 0.258227C0.301418 0.258227 0.285418 0.242227 0.285418 0.223227C0.285418 0.204227 0.301418 0.188227 0.320418 0.188227C0.329418 0.188227 0.337418 0.191227 0.343418 0.197227C0.347418 0.201227 0.352418 0.203227 0.357418 0.203227H0.384418C0.388418 0.204227 0.392418 0.203227 0.395418 0.201227C0.402418 0.198227 0.406418 0.191227 0.406418 0.183227V0.0712271H0.710418V0.375227H0.618418V0.373227C0.628418 0.360227 0.633418 0.345227 0.633418 0.328227C0.633418 0.288227 0.600418 0.254227 0.559418 0.254227Z" fill="#17315E"/>
</svg>
