<svg id="Layer_1" data-name="Layer 1" xmlns="http://www.w3.org/2000/svg" viewBox="0 0 120.03 84.15"><defs><style>.cls-1{fill:#133d8d;}.cls-2{fill:#49a942;}</style></defs><title>logo--nvtc-txt2</title><path class="cls-1" d="M11.59,30.65v3.88a11.5,11.5,0,0,1,9-4.47,10,10,0,0,1,7.17,2.74q2.87,2.73,2.87,7.83V58.11H21.94V41.35c0-3.68-1.43-5.51-4.3-5.51q-3.06,0-6.05,4.54V58.11H2.94V30.65Z"/><path class="cls-1" d="M47,58.62l-12.69-28H43.6l5.82,15.11,5.92-15.11h9.18l-12.61,28Z"/><path class="cls-2" d="M88,30.65v5.91H78v11.3a4.47,4.47,0,0,0,1.12,3.21,4.09,4.09,0,0,0,3.1,1.17A12.65,12.65,0,0,0,88,50.63v6.29a21.06,21.06,0,0,1-8,1.7q-5.06,0-7.86-2.62t-2.79-7.67V36.56H65.4V34.87L76.89,22H78v8.62Z"/><path class="cls-1" d="M116.52,50.59v6.19a27.44,27.44,0,0,1-9.31,1.84q-7.26,0-11.61-3.89a13.13,13.13,0,0,1-4.35-10.29,13.48,13.48,0,0,1,4.39-10.32,15.81,15.81,0,0,1,11.18-4.06,26.86,26.86,0,0,1,9.27,1.8V38.3a15.41,15.41,0,0,0-7-1.82,8.79,8.79,0,0,0-6.21,2.15,7.5,7.5,0,0,0-2.33,5.77,7.84,7.84,0,0,0,2.28,5.87,8.15,8.15,0,0,0,6,2.23A24,24,0,0,0,116.52,50.59Z"/><path class="cls-1" d="M7.62,63.25h.8v5.89H7.69L3.74,64.6v4.54H3V63.25h.68l4,4.57Z"/><path class="cls-1" d="M14.51,63.16a3.18,3.18,0,0,1,2.28.87,2.84,2.84,0,0,1,.91,2.16,2.8,2.8,0,0,1-.92,2.16,3.26,3.26,0,0,1-2.32.86,3.07,3.07,0,0,1-2.22-.86,2.85,2.85,0,0,1-.89-2.14,2.88,2.88,0,0,1,.9-2.18A3.1,3.1,0,0,1,14.51,63.16Zm0,.8a2.25,2.25,0,0,0-1.66.64,2.13,2.13,0,0,0-.66,1.61,2.1,2.1,0,0,0,.66,1.59,2.26,2.26,0,0,0,1.64.63,2.26,2.26,0,0,0,1.65-.64,2.16,2.16,0,0,0,.66-1.61,2.11,2.11,0,0,0-.66-1.58A2.27,2.27,0,0,0,14.54,64Z"/><path class="cls-1" d="M20.66,69.14V63.25h1.48a2.13,2.13,0,0,1,1.43.44,1.47,1.47,0,0,1,.52,1.2,1.55,1.55,0,0,1-.25.89,1.63,1.63,0,0,1-.74.56,2.52,2.52,0,0,1,.55.5A11.8,11.8,0,0,1,24.41,68c.21.33.37.59.49.76l.32.42h-1L24,68.75a.23.23,0,0,0-.05-.07l-.16-.24L23.48,68l-.29-.46a3.75,3.75,0,0,0-.48-.57,1.42,1.42,0,0,0-.39-.31,1.22,1.22,0,0,0-.59-.1h-.22v2.57ZM21.76,64h-.25v1.86h.32a2.24,2.24,0,0,0,.88-.11.81.81,0,0,0,.38-.33.93.93,0,0,0,.13-.5.9.9,0,0,0-.15-.51.78.78,0,0,0-.42-.31A2.65,2.65,0,0,0,21.76,64Z"/><path class="cls-1" d="M26.89,63.24h4.93V64H29.76v5.16h-.85V64h-2Z"/><path class="cls-1" d="M38.63,63.25h.84v5.89h-.84V66.57H35.31v2.57h-.85V63.25h.85v2.54h3.32Z"/><path class="cls-1" d="M42.73,63.25h3.35V64h-2.5v1.79H46v.76H43.58v1.83h2.58v.75H42.73Z"/><path class="cls-1" d="M49.05,69.14V63.25h1.48a2.13,2.13,0,0,1,1.43.44,1.47,1.47,0,0,1,.52,1.2,1.55,1.55,0,0,1-.25.89,1.63,1.63,0,0,1-.74.56,2.77,2.77,0,0,1,.55.5A11.8,11.8,0,0,1,52.8,68c.2.33.37.59.49.76l.32.42h-1l-.26-.39a.23.23,0,0,0-.05-.07l-.16-.24L51.87,68l-.29-.46A3.75,3.75,0,0,0,51.1,67a1.42,1.42,0,0,0-.39-.31,1.22,1.22,0,0,0-.59-.1H49.9v2.57ZM50.15,64H49.9v1.86h.32a2.24,2.24,0,0,0,.88-.11.81.81,0,0,0,.38-.33,1,1,0,0,0,.13-.5.9.9,0,0,0-.15-.51.78.78,0,0,0-.42-.31A2.65,2.65,0,0,0,50.15,64Z"/><path class="cls-1" d="M60.86,63.25h.8v5.89h-.73L57,64.6v4.54h-.79V63.25h.68l4,4.57Z"/><path class="cls-1" d="M72.78,63.25h.84l-2.5,5.91h-.19l-2.54-5.91h.85L71,67.38Z"/><path class="cls-1" d="M76.19,63.25H77v5.89h-.85Z"/><path class="cls-1" d="M80.3,69.14V63.25h1.49a2.12,2.12,0,0,1,1.42.44,1.47,1.47,0,0,1,.52,1.2,1.55,1.55,0,0,1-.25.89,1.57,1.57,0,0,1-.74.56,2.52,2.52,0,0,1,.55.5A11.8,11.8,0,0,1,84.05,68c.21.33.37.59.5.76l.31.42h-1l-.26-.39s0,0,0-.07l-.16-.24L83.12,68l-.29-.46a3.75,3.75,0,0,0-.48-.57,1.42,1.42,0,0,0-.39-.31,1.22,1.22,0,0,0-.59-.1h-.22v2.57ZM81.41,64h-.26v1.86h.32a2.2,2.2,0,0,0,.88-.11.81.81,0,0,0,.38-.33.93.93,0,0,0,.13-.5.9.9,0,0,0-.15-.51.79.79,0,0,0-.41-.31A2.73,2.73,0,0,0,81.41,64Z"/><path class="cls-1" d="M90.29,66.24h2v2.49a5.35,5.35,0,0,1-2.16.48,3.24,3.24,0,0,1-2.35-.86,2.83,2.83,0,0,1-.87-2.1,2.91,2.91,0,0,1,.91-2.2,3.11,3.11,0,0,1,2.27-.88,4.12,4.12,0,0,1,1,.11,7.3,7.3,0,0,1,1.13.39v.86a4.11,4.11,0,0,0-2.09-.61,2.25,2.25,0,0,0-1.64.66,2.34,2.34,0,0,0,0,3.26,2.39,2.39,0,0,0,1.71.63,3.79,3.79,0,0,0,1.21-.23l.08,0V67H90.29Z"/><path class="cls-1" d="M95.46,63.25h.85v5.89h-.85Z"/><path class="cls-1" d="M104.25,63.25h.8v5.89h-.73l-3.95-4.54v4.54h-.79V63.25h.68l4,4.57Z"/><path class="cls-1" d="M108.28,63.25h.85v5.89h-.85Z"/><path class="cls-1" d="M114.23,63.21h.59l2.65,5.93h-.86l-.79-1.75H113.3l-.74,1.75h-.87Zm1.25,3.43-1-2.14-.89,2.14Z"/><path class="cls-1" d="M2.55,73.6H7.49v.75H5.43v5.16H4.58V74.35h-2Z"/><path class="cls-1" d="M9.14,73.61h3.35v.75H10v1.8h2.42v.75H10v1.84h2.58v.75H9.14Z"/><path class="cls-1" d="M19.4,78.14v.93a4.37,4.37,0,0,1-2.14.51,3.37,3.37,0,0,1-1.68-.4,2.92,2.92,0,0,1-1.09-1.09,3,3,0,0,1-.41-1.51A2.86,2.86,0,0,1,15,74.42a3.16,3.16,0,0,1,2.27-.88,5.4,5.4,0,0,1,2.07.48v.91a4.13,4.13,0,0,0-2-.59,2.36,2.36,0,0,0-1.68.64,2.26,2.26,0,0,0,0,3.2,2.38,2.38,0,0,0,1.69.62A3.81,3.81,0,0,0,19.4,78.14Z"/><path class="cls-1" d="M25.55,73.61h.85v5.9h-.85V76.94H22.23v2.57h-.85v-5.9h.85v2.55h3.32Z"/><path class="cls-1" d="M33.35,73.61h.8v5.9h-.73l-4-4.54v4.54h-.79v-5.9h.68l4,4.58Z"/><path class="cls-1" d="M39.25,73.53a3.22,3.22,0,0,1,2.29.86,2.9,2.9,0,0,1,.91,2.17,2.83,2.83,0,0,1-.92,2.16,3.3,3.3,0,0,1-2.32.86A3.11,3.11,0,0,1,37,78.72a2.85,2.85,0,0,1-.89-2.14,2.92,2.92,0,0,1,.9-2.19A3.15,3.15,0,0,1,39.25,73.53Zm0,.8a2.29,2.29,0,0,0-1.67.63A2.15,2.15,0,0,0,37,76.58a2.11,2.11,0,0,0,.65,1.59,2.43,2.43,0,0,0,3.29,0,2.14,2.14,0,0,0,.66-1.6A2.11,2.11,0,0,0,40.91,75,2.22,2.22,0,0,0,39.29,74.33Z"/><path class="cls-1" d="M44.41,73.61h.84v5.13h2.66v.77h-3.5Z"/><path class="cls-1" d="M52.16,73.53a3.21,3.21,0,0,1,2.28.86,2.86,2.86,0,0,1,.91,2.17,2.8,2.8,0,0,1-.92,2.16,3.26,3.26,0,0,1-2.32.86,3.07,3.07,0,0,1-2.22-.86A2.85,2.85,0,0,1,49,76.58a3,3,0,0,1,.89-2.19A3.17,3.17,0,0,1,52.16,73.53Zm0,.8a2.29,2.29,0,0,0-1.66.63,2.16,2.16,0,0,0-.66,1.62,2.12,2.12,0,0,0,.66,1.59,2.43,2.43,0,0,0,3.29,0,2.14,2.14,0,0,0,.66-1.6A2.11,2.11,0,0,0,53.82,75,2.23,2.23,0,0,0,52.19,74.33Z"/><path class="cls-1" d="M60.42,76.61h2V79.1a5.36,5.36,0,0,1-2.17.48,3.2,3.2,0,0,1-2.34-.86A2.81,2.81,0,0,1,57,76.61a2.89,2.89,0,0,1,.91-2.19,3.15,3.15,0,0,1,2.28-.88,4,4,0,0,1,.94.11,7.74,7.74,0,0,1,1.14.39v.86a4.17,4.17,0,0,0-2.1-.61,2.23,2.23,0,0,0-1.63.66,2.19,2.19,0,0,0-.67,1.61,2.22,2.22,0,0,0,.67,1.65,2.37,2.37,0,0,0,1.71.63,4.15,4.15,0,0,0,1.21-.23l.08,0V77.35H60.42Z"/><path class="cls-1" d="M68,73.61h1l-2.18,2.78v3.12H66V76.39l-2.19-2.78h1l1.59,2Z"/><path class="cls-1" d="M78.89,78.14v.93a4.37,4.37,0,0,1-2.14.51,3.37,3.37,0,0,1-1.68-.4A2.92,2.92,0,0,1,74,78.09a3,3,0,0,1-.41-1.51,2.86,2.86,0,0,1,.92-2.16,3.16,3.16,0,0,1,2.27-.88,5.4,5.4,0,0,1,2.07.48v.91a4.13,4.13,0,0,0-2-.59,2.36,2.36,0,0,0-1.68.64,2.26,2.26,0,0,0,0,3.2,2.38,2.38,0,0,0,1.69.62A3.81,3.81,0,0,0,78.89,78.14Z"/><path class="cls-1" d="M83.59,73.53a3.18,3.18,0,0,1,2.28.86,2.86,2.86,0,0,1,.91,2.17,2.8,2.8,0,0,1-.92,2.16,3.25,3.25,0,0,1-2.31.86,3.09,3.09,0,0,1-2.23-.86,2.85,2.85,0,0,1-.89-2.14,2.92,2.92,0,0,1,.9-2.19A3.13,3.13,0,0,1,83.59,73.53Zm0,.8A2.29,2.29,0,0,0,82,75a2.16,2.16,0,0,0-.66,1.62A2.12,2.12,0,0,0,82,78.17a2.43,2.43,0,0,0,3.29,0,2.14,2.14,0,0,0,.66-1.6A2.11,2.11,0,0,0,85.25,75,2.23,2.23,0,0,0,83.62,74.33Z"/><path class="cls-1" d="M92.85,73.61h.86V77a4.22,4.22,0,0,1-.1,1,2.1,2.1,0,0,1-.25.58A1.74,1.74,0,0,1,93,79a2.69,2.69,0,0,1-1.83.61,2.73,2.73,0,0,1-1.85-.6,2.36,2.36,0,0,1-.36-.42,1.93,1.93,0,0,1-.24-.56,4.27,4.27,0,0,1-.1-1V73.61h.86V77a2.4,2.4,0,0,0,.19,1.15,1.37,1.37,0,0,0,.58.53,2,2,0,0,0,.91.19,1.89,1.89,0,0,0,1.23-.39,1.23,1.23,0,0,0,.35-.5,2.86,2.86,0,0,0,.11-1Z"/><path class="cls-1" d="M100.57,73.61h.8v5.9h-.72l-4-4.54v4.54H95.9v-5.9h.68l4,4.58Z"/><path class="cls-1" d="M108.63,78.14v.93a4.41,4.41,0,0,1-2.15.51,3.37,3.37,0,0,1-1.68-.4,3,3,0,0,1-1.49-2.6,2.86,2.86,0,0,1,.92-2.16,3.14,3.14,0,0,1,2.27-.88,5.4,5.4,0,0,1,2.07.48v.91a4.13,4.13,0,0,0-2-.59,2.38,2.38,0,0,0-1.69.64,2.15,2.15,0,0,0-.67,1.6,2.11,2.11,0,0,0,.66,1.6,2.4,2.4,0,0,0,1.69.62A3.82,3.82,0,0,0,108.63,78.14Z"/><path class="cls-1" d="M110.63,73.61h.85v5.9h-.85Z"/><path class="cls-1" d="M113.74,73.61h.85v5.13h2.65v.77h-3.5Z"/><rect class="cls-2" x="82.93" y="15.48" width="6.75" height="2.02"/><polyline class="cls-2" points="89.11 23.61 89.11 15.47 91.13 15.47 91.13 23.61 89.11 23.61"/><rect class="cls-1" x="95.3" y="17.99" width="6.74" height="2.02"/><polyline class="cls-1" points="95.87 26.13 95.87 17.98 93.85 17.98 93.85 26.13 95.87 26.13"/><rect class="cls-2" x="94.38" y="12.79" width="6.75" height="2.02"/><polyline class="cls-2" points="94.95 6.67 94.95 14.82 92.93 14.82 92.93 6.67 94.95 6.67"/><rect class="cls-1" x="81.59" y="10.69" width="6.75" height="2.02"/><polyline class="cls-1" points="87.76 4.58 87.76 12.72 89.79 12.72 89.79 4.58 87.76 4.58"/></svg>