<?xml version="1.0" encoding="UTF-8" standalone="no"?>
<!DOCTYPE svg PUBLIC "-//W3C//DTD SVG 1.1//EN" "http://www.w3.org/Graphics/SVG/1.1/DTD/svg11.dtd">
<svg width="1" height="1" viewBox="0 0 1 1" fill="none" xmlns="http://www.w3.org/2000/svg">
<path d="M0.0490442 0.491535L0.0456742 0.499935L0.0490342 0.508335C0.122814 0.692355 0.298524 0.811265 0.496684 0.811265C0.694844 0.811265 0.870554 0.692355 0.944324 0.508335L0.947694 0.499935L0.944334 0.491535C0.870554 0.307515 0.694844 0.188605 0.496684 0.188605C0.298524 0.188605 0.122814 0.307515 0.0490442 0.491535ZM0.496684 0.233725C0.673264 0.233725 0.830184 0.337915 0.898974 0.499935C0.830184 0.661955 0.673264 0.766145 0.496684 0.766145C0.320104 0.766145 0.163184 0.661955 0.0943942 0.499935C0.163184 0.337915 0.320104 0.233725 0.496684 0.233725Z" fill="#17315E"/>
<path d="M0.496684 0.672445C0.591804 0.672445 0.669194 0.595055 0.669194 0.499935C0.669194 0.404815 0.591804 0.327425 0.496684 0.327425C0.401564 0.327425 0.324174 0.404815 0.324174 0.499935C0.324174 0.595055 0.401564 0.672445 0.496684 0.672445ZM0.496684 0.368025C0.569414 0.368025 0.628584 0.427205 0.628584 0.499935C0.628584 0.572665 0.569414 0.631845 0.496684 0.631845C0.423954 0.631845 0.364784 0.572665 0.364784 0.499935C0.364784 0.427205 0.423954 0.368025 0.496684 0.368025Z" fill="#17315E"/>
<path d="M0.291584 0.609325C0.277184 0.619835 0.273984 0.640125 0.284484 0.654625C0.290884 0.663325 0.300684 0.667925 0.310684 0.667925C0.317384 0.667925 0.324084 0.665825 0.329784 0.661625C0.344284 0.651125 0.347384 0.630825 0.336884 0.616415C0.326284 0.601935 0.306084 0.598835 0.291584 0.609325Z" fill="#17315E"/>
<path d="M0.694384 0.499135V0.499935C0.694384 0.517835 0.708884 0.532335 0.726784 0.532335C0.744684 0.532335 0.759184 0.517835 0.759184 0.499935V0.498825C0.759084 0.480925 0.744584 0.466535 0.726684 0.466625C0.708784 0.466635 0.694284 0.481235 0.694384 0.499135Z" fill="#17315E"/>
<path d="M0.435784 0.688125C0.418784 0.682625 0.400484 0.691935 0.394984 0.709035C0.389484 0.726025 0.398784 0.744235 0.415884 0.749725C0.419184 0.750825 0.422484 0.751325 0.425884 0.751325C0.439484 0.751325 0.452184 0.742625 0.456684 0.728925C0.462184 0.711935 0.452784 0.693635 0.435784 0.688125Z" fill="#17315E"/>
<path d="M0.557984 0.688035C0.540884 0.693535 0.531684 0.711835 0.537184 0.728835C0.541584 0.742535 0.554284 0.751235 0.567984 0.751235C0.571284 0.751235 0.574684 0.750735 0.577984 0.749635C0.594984 0.744035 0.604284 0.725835 0.598784 0.708735C0.593284 0.691735 0.574984 0.682435 0.557984 0.688035Z" fill="#17315E"/>
<path d="M0.557184 0.311635C0.560484 0.312635 0.563784 0.313125 0.567084 0.313125C0.580784 0.313125 0.593584 0.304435 0.597984 0.290625C0.603384 0.273635 0.594084 0.255335 0.576984 0.249935C0.559984 0.244435 0.541784 0.253835 0.536284 0.270835C0.530784 0.287835 0.540184 0.306135 0.557184 0.311635Z" fill="#17315E"/>
<path d="M0.701984 0.608925C0.687484 0.598425 0.667284 0.601635 0.656684 0.616025C0.646184 0.630525 0.649384 0.650825 0.663884 0.661325C0.669684 0.665525 0.676284 0.667525 0.682884 0.667525C0.692884 0.667525 0.702784 0.662925 0.709184 0.654225C0.719684 0.639725 0.716484 0.619435 0.701984 0.608925Z" fill="#17315E"/>
<path d="M0.682384 0.396335C0.689084 0.396335 0.695784 0.394335 0.701584 0.390135C0.715984 0.379535 0.719084 0.359235 0.708484 0.344845C0.697884 0.330345 0.677684 0.327235 0.663184 0.337845C0.648784 0.348445 0.645684 0.368745 0.656284 0.383135C0.662584 0.391825 0.672484 0.396335 0.682384 0.396335Z" fill="#17315E"/>
<path d="M0.266584 0.532835C0.284484 0.532735 0.298984 0.518235 0.298984 0.500335C0.298884 0.482435 0.284384 0.467935 0.266484 0.468035C0.248584 0.468035 0.234184 0.482535 0.234184 0.500435C0.234184 0.518335 0.248684 0.532835 0.266584 0.532835Z" fill="#17315E"/>
<path d="M0.424884 0.313635C0.428284 0.313635 0.431684 0.313025 0.434984 0.311935V0.312035C0.452084 0.306425 0.461284 0.288125 0.455784 0.271135C0.450184 0.254135 0.431884 0.244835 0.414884 0.250435C0.397884 0.255935 0.388584 0.274335 0.394184 0.291235C0.398684 0.304935 0.411284 0.313635 0.424884 0.313635Z" fill="#17315E"/>
<path d="M0.291184 0.391335C0.296884 0.395535 0.303584 0.397535 0.310084 0.397535C0.320184 0.397535 0.330084 0.392835 0.336384 0.384135C0.346884 0.369635 0.343684 0.349335 0.329184 0.338835C0.314684 0.328335 0.294384 0.331635 0.283884 0.346135C0.273384 0.360625 0.276684 0.380835 0.291184 0.391335Z" fill="#17315E"/>
</svg>

